<?xml version="1.0" standalone="no"?>
<!DOCTYPE svg PUBLIC "-//W3C//DTD SVG 20010904//EN" "http://www.w3.org/TR/2001/REC-SVG-20010904/DTD/svg10.dtd">
<!-- Created using Krita: https://krita.org -->
<svg xmlns="http://www.w3.org/2000/svg" 
    xmlns:xlink="http://www.w3.org/1999/xlink"
    xmlns:krita="http://krita.org/namespaces/svg/krita"
    xmlns:sodipodi="http://sodipodi.sourceforge.net/DTD/sodipodi-0.dtd"
    width="46.08pt"
    height="46.08pt"
    viewBox="0 0 46.08 46.08">
<defs/>
<path id="shape0" transform="matrix(0.72 0 0 0.72 1.16547726288892 1.05816234609522)" fill="#8eef97" stroke-opacity="0" stroke="#000000" stroke-width="0" stroke-linecap="square" stroke-linejoin="bevel" d="M2.76977 0C1.24003 0 0 1.35425 0 3.0248L0 16.6364C0 18.307 1.24007 19.6612 2.76977 19.6612L15.2337 19.6612C16.7635 19.6612 18.0035 18.307 18.0035 16.6364L18.0035 9.18375L15.2337 12.2085L15.2337 16.6364L2.76977 16.6364L2.76977 3.0248L11.8905 3.0248L14.6602 0ZM15.7369 3.10163L8.88279 10.5868L6.92442 8.44812L4.96606 10.5868L8.88265 14.864L17.6951 5.24016Z" sodipodi:nodetypes="ccccccccccccccccccccc"/><path id="shape0" transform="matrix(0.719999988368517 0 0 0.719999988368517 1.44149515493169 16.1126809817956)" fill="#8eef97" stroke-opacity="0" stroke="#000000" stroke-width="0" stroke-linecap="square" stroke-linejoin="bevel" d="M2.7108 0C1.21362 0 0 1.32541 0 2.9604L0 16.2822C0 17.9172 1.21366 19.2426 2.7108 19.2426L14.9094 19.2426C16.4066 19.2426 17.6201 17.9172 17.6201 16.2822L17.6201 8.98824L14.9094 11.9486L14.9094 16.2822L2.7108 16.2822L2.7108 2.9604L11.6373 2.9604L14.3481 0ZM15.4017 3.03559L8.69365 10.3613L6.77699 8.26824L4.86032 10.3613L8.69351 14.5475L17.3183 5.12859Z" sodipodi:nodetypes="ccccccccccccccccccccc"/><path id="shape01" transform="matrix(0.719999988368517 0 0 0.719999988368517 1.44149515493169 30.823756685371)" fill="#8eef97" stroke-opacity="0" stroke="#000000" stroke-width="0" stroke-linecap="square" stroke-linejoin="bevel" d="M2.80598 0C1.25624 0 0 1.37196 0 3.06435L0 16.8539C0 18.5463 1.25628 19.9182 2.80598 19.9182L15.4329 19.9182C16.9827 19.9182 18.2389 18.5463 18.2389 16.8539L18.2389 9.30385L15.4329 12.3681L15.4329 16.8539L2.80598 16.8539L2.80598 3.06435L12.0459 3.06435L14.852 0ZM15.9426 3.14218L8.99892 10.7252L7.01496 8.55857L5.03099 10.7252L8.99878 15.0583L17.9264 5.30868Z" sodipodi:nodetypes="ccccccccccccccccccccc"/><path id="shape1" transform="translate(19.9828372210169, 8.08223034098456)" fill="none" stroke="#8e8e8e" stroke-width="7.2" stroke-linecap="square" stroke-linejoin="miter" stroke-miterlimit="2" d="M0 0L19.7919 0" sodipodi:nodetypes="cc"/><path id="shape02" transform="matrix(1.00000000899919 0 0 1.00000000899919 20.0388587284364 23.04)" fill="none" stroke="#8e8e8e" stroke-width="7.2" stroke-linecap="square" stroke-linejoin="miter" stroke-miterlimit="2" d="M0 0L19.7919 0" sodipodi:nodetypes="cc"/><path id="shape03" transform="matrix(1.00000000899919 0 0 1.00000000899919 19.7843002924999 38.1061457012565)" fill="none" stroke="#8e8e8e" stroke-width="7.2" stroke-linecap="square" stroke-linejoin="miter" stroke-miterlimit="2" d="M0 0L19.7919 0" sodipodi:nodetypes="cc"/>
</svg>
